<mxfile host="app.diagrams.net" modified="2021-09-25T05:43:43.988Z" agent="5.0 (Macintosh; Intel Mac OS X 10_15_7) AppleWebKit/537.36 (KHTML, like Gecko) Chrome/93.0.4577.82 Safari/537.36" etag="Qg5kf9LqZbF-K5T_3AFe" version="15.3.2" type="github">
  <diagram id="kgpKYQtTHZ0yAKxKKP6v" name="Page-1">
    <mxGraphModel dx="1426" dy="793" grid="1" gridSize="10" guides="1" tooltips="1" connect="1" arrows="1" fold="1" page="1" pageScale="1" pageWidth="850" pageHeight="1100" math="0" shadow="0">
      <root>
        <mxCell id="0" />
        <mxCell id="1" parent="0" />
        <mxCell id="XZD5LZTIUlUZhoP-xwFo-17" style="edgeStyle=orthogonalEdgeStyle;rounded=0;orthogonalLoop=1;jettySize=auto;html=1;exitX=1;exitY=0.25;exitDx=0;exitDy=0;" edge="1" parent="1" source="XZD5LZTIUlUZhoP-xwFo-1">
          <mxGeometry relative="1" as="geometry">
            <mxPoint x="470" y="90" as="targetPoint" />
            <Array as="points">
              <mxPoint x="160" y="220" />
              <mxPoint x="240" y="220" />
              <mxPoint x="240" y="90" />
            </Array>
          </mxGeometry>
        </mxCell>
        <mxCell id="XZD5LZTIUlUZhoP-xwFo-65" style="edgeStyle=orthogonalEdgeStyle;rounded=0;orthogonalLoop=1;jettySize=auto;html=1;exitX=1;exitY=0.75;exitDx=0;exitDy=0;entryX=-0.006;entryY=0.629;entryDx=0;entryDy=0;entryPerimeter=0;" edge="1" parent="1" source="XZD5LZTIUlUZhoP-xwFo-1" target="XZD5LZTIUlUZhoP-xwFo-6">
          <mxGeometry relative="1" as="geometry">
            <mxPoint x="460" y="344" as="targetPoint" />
          </mxGeometry>
        </mxCell>
        <mxCell id="XZD5LZTIUlUZhoP-xwFo-1" value="CSS颜色、&lt;br&gt;需要适配的图片" style="rounded=0;whiteSpace=wrap;html=1;" vertex="1" parent="1">
          <mxGeometry x="40" y="188.5" width="120" height="175" as="geometry" />
        </mxCell>
        <mxCell id="XZD5LZTIUlUZhoP-xwFo-52" style="edgeStyle=orthogonalEdgeStyle;rounded=0;orthogonalLoop=1;jettySize=auto;html=1;exitX=1;exitY=0.5;exitDx=0;exitDy=0;entryX=0.5;entryY=1;entryDx=0;entryDy=0;startArrow=none;" edge="1" parent="1" source="XZD5LZTIUlUZhoP-xwFo-70" target="XZD5LZTIUlUZhoP-xwFo-62">
          <mxGeometry relative="1" as="geometry">
            <mxPoint x="680" y="300" as="targetPoint" />
            <Array as="points">
              <mxPoint x="630" y="260" />
              <mxPoint x="805" y="260" />
            </Array>
          </mxGeometry>
        </mxCell>
        <mxCell id="XZD5LZTIUlUZhoP-xwFo-67" style="edgeStyle=orthogonalEdgeStyle;rounded=0;orthogonalLoop=1;jettySize=auto;html=1;exitX=1;exitY=0.75;exitDx=0;exitDy=0;" edge="1" parent="1" source="XZD5LZTIUlUZhoP-xwFo-6">
          <mxGeometry relative="1" as="geometry">
            <mxPoint x="750" y="339" as="targetPoint" />
          </mxGeometry>
        </mxCell>
        <mxCell id="XZD5LZTIUlUZhoP-xwFo-6" value="" style="rounded=0;whiteSpace=wrap;html=1;" vertex="1" parent="1">
          <mxGeometry x="470" y="222.5" width="160" height="155" as="geometry" />
        </mxCell>
        <mxCell id="XZD5LZTIUlUZhoP-xwFo-13" value="[&lt;br&gt;&lt;br&gt;&quot;#FFF&quot;: {&lt;br&gt;&lt;span style=&quot;white-space: pre&quot;&gt;	&lt;/span&gt;name: &quot;-whiteFF&quot;,&lt;br&gt;&lt;span style=&quot;white-space: pre&quot;&gt;	&lt;/span&gt;value:[&quot;#ddd&quot;,&quot;#888&quot;]&lt;br&gt;},&lt;br&gt;...&lt;br&gt;&lt;br&gt;]" style="text;html=1;strokeColor=none;fillColor=none;align=left;verticalAlign=middle;whiteSpace=wrap;rounded=0;" vertex="1" parent="1">
          <mxGeometry x="480" y="230" width="150" height="140" as="geometry" />
        </mxCell>
        <mxCell id="XZD5LZTIUlUZhoP-xwFo-36" value="" style="edgeStyle=orthogonalEdgeStyle;rounded=0;orthogonalLoop=1;jettySize=auto;html=1;" edge="1" parent="1" source="XZD5LZTIUlUZhoP-xwFo-19" target="XZD5LZTIUlUZhoP-xwFo-35">
          <mxGeometry relative="1" as="geometry" />
        </mxCell>
        <mxCell id="XZD5LZTIUlUZhoP-xwFo-19" value="透明通道色" style="text;html=1;strokeColor=none;fillColor=none;align=center;verticalAlign=middle;whiteSpace=wrap;rounded=0;" vertex="1" parent="1">
          <mxGeometry x="180" y="255" width="80" height="20" as="geometry" />
        </mxCell>
        <mxCell id="XZD5LZTIUlUZhoP-xwFo-20" value="" style="edgeStyle=orthogonalEdgeStyle;rounded=0;orthogonalLoop=1;jettySize=auto;html=1;entryX=0;entryY=0.5;entryDx=0;entryDy=0;endArrow=none;" edge="1" parent="1" source="XZD5LZTIUlUZhoP-xwFo-1" target="XZD5LZTIUlUZhoP-xwFo-19">
          <mxGeometry relative="1" as="geometry">
            <mxPoint x="160" y="300" as="sourcePoint" />
            <mxPoint x="290" y="300" as="targetPoint" />
            <Array as="points">
              <mxPoint x="170" y="265" />
              <mxPoint x="170" y="265" />
            </Array>
          </mxGeometry>
        </mxCell>
        <mxCell id="XZD5LZTIUlUZhoP-xwFo-26" value="图片" style="text;html=1;strokeColor=none;fillColor=none;align=center;verticalAlign=middle;whiteSpace=wrap;rounded=0;" vertex="1" parent="1">
          <mxGeometry x="307.5" y="60" width="40" height="20" as="geometry" />
        </mxCell>
        <mxCell id="XZD5LZTIUlUZhoP-xwFo-63" value="" style="edgeStyle=orthogonalEdgeStyle;rounded=0;orthogonalLoop=1;jettySize=auto;html=1;" edge="1" parent="1" source="XZD5LZTIUlUZhoP-xwFo-34" target="XZD5LZTIUlUZhoP-xwFo-62">
          <mxGeometry relative="1" as="geometry" />
        </mxCell>
        <mxCell id="XZD5LZTIUlUZhoP-xwFo-34" value="url(../pic.dark.png)&lt;br&gt;url(../pic.night.png)" style="rounded=0;whiteSpace=wrap;html=1;" vertex="1" parent="1">
          <mxGeometry x="440" y="60" width="190" height="60" as="geometry" />
        </mxCell>
        <mxCell id="XZD5LZTIUlUZhoP-xwFo-42" style="edgeStyle=orthogonalEdgeStyle;rounded=0;orthogonalLoop=1;jettySize=auto;html=1;entryX=0;entryY=0.5;entryDx=0;entryDy=0;entryPerimeter=0;startArrow=none;" edge="1" parent="1" source="XZD5LZTIUlUZhoP-xwFo-43">
          <mxGeometry relative="1" as="geometry">
            <mxPoint x="470" y="265" as="targetPoint" />
          </mxGeometry>
        </mxCell>
        <mxCell id="XZD5LZTIUlUZhoP-xwFo-35" value="剥离透明度" style="whiteSpace=wrap;html=1;" vertex="1" parent="1">
          <mxGeometry x="296.25" y="250" width="67.5" height="30" as="geometry" />
        </mxCell>
        <mxCell id="XZD5LZTIUlUZhoP-xwFo-43" value="纯色" style="text;html=1;strokeColor=none;fillColor=none;align=center;verticalAlign=middle;whiteSpace=wrap;rounded=0;" vertex="1" parent="1">
          <mxGeometry x="382.5" y="255" width="35" height="20" as="geometry" />
        </mxCell>
        <mxCell id="XZD5LZTIUlUZhoP-xwFo-44" value="" style="edgeStyle=orthogonalEdgeStyle;rounded=0;orthogonalLoop=1;jettySize=auto;html=1;entryX=0;entryY=0.5;entryDx=0;entryDy=0;entryPerimeter=0;endArrow=none;" edge="1" parent="1" source="XZD5LZTIUlUZhoP-xwFo-35" target="XZD5LZTIUlUZhoP-xwFo-43">
          <mxGeometry relative="1" as="geometry">
            <mxPoint x="350" y="300" as="sourcePoint" />
            <mxPoint x="470" y="300" as="targetPoint" />
          </mxGeometry>
        </mxCell>
        <mxCell id="XZD5LZTIUlUZhoP-xwFo-51" value="纯色" style="text;html=1;strokeColor=none;fillColor=none;align=center;verticalAlign=middle;whiteSpace=wrap;rounded=0;" vertex="1" parent="1">
          <mxGeometry x="310" y="330" width="35" height="20" as="geometry" />
        </mxCell>
        <mxCell id="XZD5LZTIUlUZhoP-xwFo-55" value="" style="edgeStyle=orthogonalEdgeStyle;rounded=0;orthogonalLoop=1;jettySize=auto;html=1;" edge="1" parent="1" source="XZD5LZTIUlUZhoP-xwFo-53" target="XZD5LZTIUlUZhoP-xwFo-54">
          <mxGeometry relative="1" as="geometry" />
        </mxCell>
        <mxCell id="XZD5LZTIUlUZhoP-xwFo-53" value="带有CSS颜色变量的样式" style="rounded=0;whiteSpace=wrap;html=1;" vertex="1" parent="1">
          <mxGeometry x="750" y="310" width="120" height="60" as="geometry" />
        </mxCell>
        <mxCell id="XZD5LZTIUlUZhoP-xwFo-57" value="" style="edgeStyle=orthogonalEdgeStyle;rounded=0;orthogonalLoop=1;jettySize=auto;html=1;" edge="1" parent="1" source="XZD5LZTIUlUZhoP-xwFo-54" target="XZD5LZTIUlUZhoP-xwFo-56">
          <mxGeometry relative="1" as="geometry" />
        </mxCell>
        <mxCell id="XZD5LZTIUlUZhoP-xwFo-54" value="" style="whiteSpace=wrap;html=1;rounded=0;" vertex="1" parent="1">
          <mxGeometry x="960" y="240" width="170" height="200" as="geometry" />
        </mxCell>
        <mxCell id="XZD5LZTIUlUZhoP-xwFo-56" value="渲染" style="whiteSpace=wrap;html=1;rounded=0;" vertex="1" parent="1">
          <mxGeometry x="1200" y="190" width="120" height="60" as="geometry" />
        </mxCell>
        <mxCell id="XZD5LZTIUlUZhoP-xwFo-60" value="替换" style="text;html=1;strokeColor=none;fillColor=none;align=center;verticalAlign=middle;whiteSpace=wrap;rounded=0;" vertex="1" parent="1">
          <mxGeometry x="670" y="350" width="40" height="20" as="geometry" />
        </mxCell>
        <mxCell id="XZD5LZTIUlUZhoP-xwFo-64" style="edgeStyle=orthogonalEdgeStyle;rounded=0;orthogonalLoop=1;jettySize=auto;html=1;exitX=1;exitY=0.5;exitDx=0;exitDy=0;entryX=0.5;entryY=0;entryDx=0;entryDy=0;" edge="1" parent="1" source="XZD5LZTIUlUZhoP-xwFo-62" target="XZD5LZTIUlUZhoP-xwFo-56">
          <mxGeometry relative="1" as="geometry" />
        </mxCell>
        <mxCell id="XZD5LZTIUlUZhoP-xwFo-62" value="生成主题样式" style="whiteSpace=wrap;html=1;rounded=0;" vertex="1" parent="1">
          <mxGeometry x="745" y="60" width="120" height="60" as="geometry" />
        </mxCell>
        <mxCell id="XZD5LZTIUlUZhoP-xwFo-70" value="追加透明度" style="rounded=0;whiteSpace=wrap;html=1;" vertex="1" parent="1">
          <mxGeometry x="670" y="245" width="80" height="30" as="geometry" />
        </mxCell>
        <mxCell id="XZD5LZTIUlUZhoP-xwFo-74" value=":root {&lt;br&gt;&lt;span style=&quot;white-space: pre&quot;&gt;	&lt;/span&gt;--whiteFF:#fff;&lt;br&gt;&lt;span style=&quot;white-space: pre&quot;&gt;	&lt;/span&gt;...&lt;br&gt;}&lt;br&gt;.theme-dark {&lt;br&gt;&lt;span style=&quot;white-space: pre&quot;&gt;	&lt;/span&gt;--whiteFF:#ddd;&lt;br&gt;&lt;span style=&quot;white-space: pre&quot;&gt;	&lt;/span&gt;...&lt;br&gt;}&lt;br&gt;.theme-night {&lt;br&gt;&lt;span style=&quot;white-space: pre&quot;&gt;	&lt;/span&gt;--whiteFF:#888;&lt;br&gt;&lt;span style=&quot;white-space: pre&quot;&gt;	&lt;/span&gt;...&lt;br&gt;}&lt;br&gt;" style="text;html=1;strokeColor=none;fillColor=none;align=left;verticalAlign=middle;whiteSpace=wrap;rounded=0;" vertex="1" parent="1">
          <mxGeometry x="970" y="270" width="150" height="140" as="geometry" />
        </mxCell>
        <mxCell id="XZD5LZTIUlUZhoP-xwFo-75" value="内置CSS颜色Map" style="text;html=1;strokeColor=none;fillColor=none;align=center;verticalAlign=middle;whiteSpace=wrap;rounded=0;" vertex="1" parent="1">
          <mxGeometry x="480" y="200" width="130" height="20" as="geometry" />
        </mxCell>
        <mxCell id="XZD5LZTIUlUZhoP-xwFo-76" value="CLI预埋CSS主题色变量" style="text;html=1;strokeColor=none;fillColor=none;align=center;verticalAlign=middle;whiteSpace=wrap;rounded=0;" vertex="1" parent="1">
          <mxGeometry x="965" y="220" width="160" height="20" as="geometry" />
        </mxCell>
        <mxCell id="XZD5LZTIUlUZhoP-xwFo-78" value="" style="endArrow=none;dashed=1;html=1;" edge="1" parent="1">
          <mxGeometry width="50" height="50" relative="1" as="geometry">
            <mxPoint x="280" y="40" as="sourcePoint" />
            <mxPoint x="920" y="40" as="targetPoint" />
          </mxGeometry>
        </mxCell>
        <mxCell id="XZD5LZTIUlUZhoP-xwFo-79" value="" style="endArrow=none;dashed=1;html=1;" edge="1" parent="1">
          <mxGeometry width="50" height="50" relative="1" as="geometry">
            <mxPoint x="280" y="470" as="sourcePoint" />
            <mxPoint x="920" y="470" as="targetPoint" />
          </mxGeometry>
        </mxCell>
        <mxCell id="XZD5LZTIUlUZhoP-xwFo-80" value="" style="endArrow=none;dashed=1;html=1;" edge="1" parent="1">
          <mxGeometry width="50" height="50" relative="1" as="geometry">
            <mxPoint x="280" y="470" as="sourcePoint" />
            <mxPoint x="280" y="40" as="targetPoint" />
          </mxGeometry>
        </mxCell>
        <mxCell id="XZD5LZTIUlUZhoP-xwFo-82" value="" style="endArrow=none;dashed=1;html=1;" edge="1" parent="1">
          <mxGeometry width="50" height="50" relative="1" as="geometry">
            <mxPoint x="920" y="470" as="sourcePoint" />
            <mxPoint x="920" y="40" as="targetPoint" />
          </mxGeometry>
        </mxCell>
        <mxCell id="XZD5LZTIUlUZhoP-xwFo-83" value="&lt;font size=&quot;1&quot;&gt;&lt;b style=&quot;font-size: 16px&quot;&gt;@mf2e/postcss-generate-theme&lt;/b&gt;&lt;/font&gt;" style="text;html=1;strokeColor=none;fillColor=none;align=center;verticalAlign=middle;whiteSpace=wrap;rounded=0;" vertex="1" parent="1">
          <mxGeometry x="485" y="490" width="260" height="20" as="geometry" />
        </mxCell>
      </root>
    </mxGraphModel>
  </diagram>
</mxfile>
